<svg width="70.000023" height="75.947754" viewBox="0 0 70 75.9478" fill="none" xmlns="http://www.w3.org/2000/svg" xmlns:xlink="http://www.w3.org/1999/xlink">
	<desc>
			Created with Pixso.
	</desc>
	<defs/>
	<path id="Vector" d="M40.2614 0.915039L40.2614 75.0327L0.915031 75.0327L0.915031 13.2679L40.2614 0.915039Z" stroke="#EF7F1A" stroke-opacity="1.000000" stroke-width="1.830065" stroke-linejoin="round"/>
	<path id="Vector" d="M69.085 21.5033L69.085 75.0327L39.8039 75.0327L39.8039 21.5033L69.085 21.5033Z" stroke="#EF7F1A" stroke-opacity="1.000000" stroke-width="1.830065" stroke-linejoin="round"/>
	<path id="Vector" d="M64.9673 8.69287L64.9673 21.5033L40.2615 21.5033L40.2615 8.69287L64.9673 8.69287Z" stroke="#EF7F1A" stroke-opacity="1.000000" stroke-width="1.830065" stroke-linejoin="round"/>
	<path id="Vector" d="M50.7843 1.83008L50.7843 8.69287" stroke="#EF7F1A" stroke-opacity="1.000000" stroke-width="1.830065" stroke-linejoin="round" stroke-linecap="round"/>
	<path id="Vector" d="M61.3072 11.4379L61.3072 17.8431L43.0066 17.8431L43.0066 11.4379L61.3072 11.4379Z" stroke="#EF7F1A" stroke-opacity="1.000000" stroke-width="0.915033" stroke-linejoin="round"/>
	<path id="Vector" d="M65.8824 24.7059L65.8824 29.7386L39.8039 29.7386L39.8039 24.7059L65.8824 24.7059Z" stroke="#EF7F1A" stroke-opacity="1.000000" stroke-width="0.915033" stroke-linejoin="round"/>
	<path id="Vector" d="M65.8824 32.9412L65.8824 37.9739L39.8039 37.9739L39.8039 32.9412L65.8824 32.9412Z" stroke="#EF7F1A" stroke-opacity="1.000000" stroke-width="0.915033" stroke-linejoin="round"/>
	<path id="Vector" d="M65.8824 41.1765L65.8824 46.2092L39.8039 46.2092L39.8039 41.1765L65.8824 41.1765Z" stroke="#EF7F1A" stroke-opacity="1.000000" stroke-width="0.915033" stroke-linejoin="round"/>
	<path id="Vector" d="M65.8824 49.4117L65.8824 54.4445L39.8039 54.4445L39.8039 49.4117L65.8824 49.4117Z" stroke="#EF7F1A" stroke-opacity="1.000000" stroke-width="0.915033" stroke-linejoin="round"/>
	<path id="Vector" d="M65.8824 57.6471L65.8824 62.6798L39.8039 62.6798L39.8039 57.6471L65.8824 57.6471Z" stroke="#EF7F1A" stroke-opacity="1.000000" stroke-width="0.915033" stroke-linejoin="round"/>
	<path id="Vector" d="M65.8824 65.8823L65.8824 70.915L39.8039 70.915L39.8039 65.8823L65.8824 65.8823Z" stroke="#EF7F1A" stroke-opacity="1.000000" stroke-width="0.915033" stroke-linejoin="round"/>
	<path id="Vector" d="M10.0653 10.5228L10.0653 75.0326" stroke="#EF7F1A" stroke-opacity="1.000000" stroke-width="0.915033" stroke-linejoin="round" stroke-linecap="round"/>
	<path id="Vector" d="M19.6732 7.32031L19.6732 75.0327" stroke="#EF7F1A" stroke-opacity="1.000000" stroke-width="0.915033" stroke-linejoin="round" stroke-linecap="round"/>
	<path id="Vector" d="M29.7385 4.11768L29.7385 75.0327" stroke="#EF7F1A" stroke-opacity="1.000000" stroke-width="0.915033" stroke-linejoin="round" stroke-linecap="round"/>
	<path id="Vector" d="M0.915031 20.5883L40.2614 20.5883" stroke="#EF7F1A" stroke-opacity="1.000000" stroke-width="0.915033" stroke-linejoin="round" stroke-linecap="round"/>
	<path id="Vector" d="M0.915031 39.3464L40.2614 39.3464" stroke="#EF7F1A" stroke-opacity="1.000000" stroke-width="0.915033" stroke-linejoin="round" stroke-linecap="round"/>
	<path id="Vector" d="M0.915031 56.7321L40.2614 56.7321" stroke="#EF7F1A" stroke-opacity="1.000000" stroke-width="0.915033" stroke-linejoin="round" stroke-linecap="round"/>
</svg>
