<svg width="70.000000" height="73.712158" viewBox="0 0 70 73.7122" fill="none" xmlns="http://www.w3.org/2000/svg" xmlns:xlink="http://www.w3.org/1999/xlink">
	<desc>
			Created with Pixso.
	</desc>
	<defs/>
	<path id="Vector" d="M4.77271 0L66.2879 0C66.2879 0 66.8182 0.530273 66.8182 1.06055L66.8182 66.2878C66.8182 66.8181 66.2879 66.8181 66.2879 66.8181L4.77271 66.8181C4.24243 66.8181 4.24243 66.8181 4.24243 66.2878L4.24243 55.6819L5.83331 55.6819L5.83331 65.2273L65.2273 65.2273L65.2273 2.12109L5.83331 2.12109L5.83331 55.6819L4.24243 55.6819L4.24243 1.06055C4.24243 0.530273 4.24243 0 4.77271 0L4.77271 0Z" fill="#EF7F1A" fill-opacity="1.000000" fill-rule="nonzero"/>
	<path id="Vector" d="M8.48486 4.24243L62.5758 4.24243L63.1061 4.77271L63.1061 62.0454C63.1061 62.5757 62.5758 62.5757 62.5758 62.5757L8.48486 62.5757C8.48486 62.5757 7.95459 62.5757 7.95459 62.0454L7.95459 4.77271L8.48486 4.24243ZM62.0455 5.30298L9.0152 5.30298L9.0152 54.6213L9.0152 56.2122L9.0152 57.2727L9.0152 61.5151L62.0455 61.5151L62.0455 5.30298Z" fill="#EF7F1A" fill-opacity="1.000000" fill-rule="nonzero"/>
	<path id="Vector" d="M31.8182 8.48486L31.8182 58.3333L12.197 58.3333L12.197 54.6213L12.197 36.0605L12.197 8.48486L31.8182 8.48486Z" stroke="#EF7F1A" stroke-opacity="1.000000" stroke-width="1.060606" stroke-linejoin="round"/>
	<path id="Vector" d="M59.9243 7.42432L59.9243 59.9243L33.4091 59.9243L33.4091 7.42432L59.9243 7.42432ZM57.8031 9.54541L57.8031 57.2727L36.0606 57.2727L36.0606 33.4092L35.5303 33.4092C35 33.4092 34.4697 32.8789 34.4697 32.3486C34.4697 31.8184 35 31.2878 35.5303 31.2878L36.0606 31.2878L36.0606 9.54541L57.8031 9.54541Z" stroke="#EF7F1A" stroke-opacity="1.000000" stroke-width="1.060606" stroke-linejoin="round"/>
	<path id="Vector" d="M68.9394 66.2878L68.9394 72.6514L1.06061 72.6514L1.06061 66.2878L68.9394 66.2878Z" stroke="#EF7F1A" stroke-opacity="1.000000" stroke-width="2.121212" stroke-linejoin="round"/>
	<path id="Vector" d="M41.8939 31.2878C42.4797 31.2878 42.9545 31.644 42.9545 32.0833C42.9545 32.5227 42.4797 32.8787 41.8939 32.8787L35.5303 32.8787C34.9445 32.8787 34.4697 32.5227 34.4697 32.0833C34.4697 31.644 34.9445 31.2878 35.5303 31.2878L41.8939 31.2878Z" stroke="#EF7F1A" stroke-opacity="1.000000" stroke-width="1.060606" stroke-linejoin="round"/>
</svg>
