<svg width="72.000000" height="80.000000" viewBox="0 0 72 80" fill="none" xmlns="http://www.w3.org/2000/svg" xmlns:xlink="http://www.w3.org/1999/xlink">
	<desc>
			Created with Pixso.
	</desc>
	<defs/>
	<path id="Vector" d="M20.31 11.04L20.83 12.61L17.7 14.7L19.79 17.83L17.7 20.96L20.83 23.05L20.83 24.09L5.17 24.09L7.78 17.31L5.17 11.04L20.31 11.04Z" stroke="#EF7F1A" stroke-opacity="1.000000" stroke-width="2.088235" stroke-linejoin="round"/>
	<path id="Vector" d="M50.59 11.04L50.07 12.61L52.68 14.7L51.11 17.83L52.68 20.96L50.07 23.05L50.07 24.09L66.25 24.09L63.12 17.31L66.25 11.04L50.59 11.04Z" stroke="#EF7F1A" stroke-opacity="1.000000" stroke-width="2.088235" stroke-linejoin="round"/>
	<path id="Vector" d="M38.06 2.69L41.72 1.12L43.28 4.26L46.94 4.26L47.46 7.91L50.59 8.95L50.07 12.61L52.68 14.7L51.11 17.83L52.68 20.96L50.07 23.05L50.59 26.7L47.46 27.75L46.94 31.4L43.28 31.4L41.72 34.54L38.06 32.97L35.45 35.58L32.84 32.97L29.19 34.54L27.62 31.4L23.97 31.4L23.44 27.75L19.79 26.7L20.83 23.05L17.7 20.96L19.79 17.83L17.7 14.7L20.83 12.61L19.79 8.95L23.44 7.91L23.97 4.26L27.62 4.26L29.19 1.12L32.84 2.69L35.45 0.08L38.06 2.69Z" stroke="#EF7F1A" stroke-opacity="1.000000" stroke-width="2.088235" stroke-linejoin="round"/>
	<path id="Vector" d="M37.54 6.87L39.63 5.82L41.19 7.91L43.8 7.91L43.8 10.52L46.41 11.56L45.89 13.65L47.98 15.74L46.41 17.83L47.98 19.92L45.89 21.48L46.41 24.09L43.8 25.14L43.8 27.75L41.19 27.23L39.63 29.84L37.54 28.79L35.45 30.36L33.36 28.79L31.27 29.84L29.71 27.75L27.1 27.75L27.1 25.14L24.49 24.09L25.01 21.48L22.92 19.92L23.97 17.83L22.92 15.74L25.01 14.17L24.49 11.56L26.58 10.52L27.1 7.91L29.71 7.91L31.27 5.82L33.36 6.87L35.45 4.78L37.54 6.87Z" stroke="#EF7F1A" stroke-opacity="1.000000" stroke-width="1.044118" stroke-linejoin="round"/>
	<path id="Vector" d="M32.84 9.48L39.11 9.48L39.11 12.61L37.54 12.61L37.54 23.05L39.11 23.05L39.11 25.66L32.84 25.66L32.84 23.05L34.41 23.05L34.41 12.61L32.84 12.61L32.84 9.48Z" stroke="#EF7F1A" stroke-opacity="1.000000" stroke-width="1.044118" stroke-linejoin="round"/>
	<path id="Vector" d="M27.62 39.23L29.71 39.76L28.66 41.32L28.66 43.41L26.58 42.89L24.49 43.41L24.49 41.32L23.44 39.76L25.01 39.23L26.58 37.67L27.62 39.23Z" stroke="#EF7F1A" stroke-opacity="1.000000" stroke-width="1.044118" stroke-linejoin="round"/>
	<path id="Vector" d="M37.02 40.28L39.11 41.32L38.06 42.89L38.06 44.98L35.97 44.45L33.88 44.98L33.88 42.89L32.84 41.32L34.41 40.28L35.97 38.71L37.02 40.28Z" stroke="#EF7F1A" stroke-opacity="1.000000" stroke-width="1.044118" stroke-linejoin="round"/>
	<path id="Vector" d="M46.41 38.71L48.5 39.23L47.46 40.8L47.46 42.89L45.37 42.37L43.28 42.89L43.28 41.32L42.24 39.23L43.8 38.71L45.37 37.15L46.41 38.71Z" stroke="#EF7F1A" stroke-opacity="1.000000" stroke-width="1.044118" stroke-linejoin="round"/>
	<path id="Vector" d="M42.24 48.63L44.33 49.15L43.28 50.72L43.28 52.81L41.19 52.29L39.11 52.81L39.11 50.72L38.06 49.15L40.15 48.63L41.19 46.54L42.24 48.63Z" stroke="#EF7F1A" stroke-opacity="1.000000" stroke-width="1.044118" stroke-linejoin="round"/>
	<path id="Vector" d="M32.32 48.11L34.41 49.15L32.84 50.72L32.84 52.81L31.27 52.29L29.19 52.81L29.19 50.72L27.62 49.15L29.71 48.63L30.75 46.54L32.32 48.11Z" stroke="#EF7F1A" stroke-opacity="1.000000" stroke-width="1.044118" stroke-linejoin="round"/>
	<path id="Vector" d="M25.53 59.59C25.01 56.98 23.97 55.42 22.92 54.37C21.88 53.33 21.36 52.29 20.31 51.24C19.27 50.2 18.22 49.15 17.18 47.59C15.61 46.02 13.52 43.41 12.48 42.37C10.91 41.32 9.87 41.84 9.35 41.84C8.83 42.37 8.3 42.89 8.83 43.41C8.83 43.93 8.83 44.45 9.87 46.02C10.91 47.59 11.96 49.15 12.48 50.72C13.52 52.29 13.52 53.33 13.52 53.85C13 54.37 12.48 54.37 11.44 52.81C10.39 51.24 8.83 48.63 7.78 46.54C6.74 44.45 6.22 43.41 6.22 41.32C5.69 39.23 5.69 36.1 5.17 34.01C5.17 32.45 4.65 30.88 4.13 30.36C3.61 29.84 2.56 29.84 2.04 29.84C1.52 30.36 1 30.88 1 31.4C1 32.45 1 32.97 1.52 36.1C1.52 39.23 2.04 44.98 2.04 47.59C2.56 50.72 2.56 50.72 4.65 53.33C6.74 55.94 10.39 60.12 12.48 62.73C14.05 65.34 14.05 65.34 14.57 66.38C14.57 66.9 14.57 67.95 14.57 68.99L26.05 68.99C26.05 66.38 26.05 62.2 25.53 59.59Z" stroke="#EF7F1A" stroke-opacity="1.000000" stroke-width="2.088235" stroke-linejoin="round"/>
	<path id="Vector" d="M4.65 31.92C5.17 31.92 5.17 31.4 5.69 31.4C6.22 31.4 6.74 31.4 7.26 31.92L7.78 32.45C7.78 32.97 8.3 33.49 8.3 35.06C8.83 36.62 9.35 39.23 9.87 41.84" stroke="#EF7F1A" stroke-opacity="1.000000" stroke-width="2.088235" stroke-linejoin="round" stroke-linecap="round"/>
	<path id="Vector" d="M8.3 33.49C8.3 33.49 8.83 33.49 9.35 33.49C9.35 33.49 9.87 33.49 10.39 34.01C10.39 34.01 10.91 34.54 10.91 35.06C11.44 35.58 11.44 36.62 11.96 38.19C11.96 39.23 12.48 41.32 13 43.41" stroke="#EF7F1A" stroke-opacity="1.000000" stroke-width="2.088235" stroke-linejoin="round" stroke-linecap="round"/>
	<path id="Vector" d="M27.62 68.99L27.62 78.91L11.96 78.91L11.96 68.99L27.62 68.99Z" stroke="#EF7F1A" stroke-opacity="1.000000" stroke-width="2.088235" stroke-linejoin="round"/>
	<path id="Vector" d="M44.85 59.59C45.37 56.98 46.41 55.94 47.46 54.9C48.5 53.33 49.55 52.29 50.59 51.76C51.63 50.72 52.16 49.68 53.72 48.11C55.29 46.02 57.38 43.93 58.42 42.89C59.99 41.84 61.03 41.84 61.55 42.37C62.08 42.37 62.6 42.89 62.6 43.41C62.08 43.93 62.08 44.98 61.03 46.02C60.51 47.59 58.94 49.68 58.42 51.24C57.38 52.81 57.38 53.85 57.38 54.37C57.9 54.9 58.42 54.9 59.47 53.33C60.51 51.76 62.08 48.63 63.12 46.54C64.16 44.45 64.69 43.41 64.69 41.32C65.21 39.23 65.73 36.62 65.73 34.54C66.25 32.45 66.25 31.4 66.77 30.36C67.3 29.84 68.34 29.84 68.86 30.36C69.38 30.36 69.91 30.88 69.91 31.93C70.43 32.45 69.91 33.49 69.91 36.62C69.38 39.76 69.38 44.98 68.86 47.59C68.34 50.72 68.34 51.24 66.25 53.33C64.16 55.94 60.51 60.64 58.42 62.73C56.86 65.34 56.33 65.34 56.33 66.38C56.33 66.9 56.33 67.95 56.33 68.99L44.33 68.99C44.33 66.9 44.33 62.73 44.85 59.59Z" stroke="#EF7F1A" stroke-opacity="1.000000" stroke-width="2.088235" stroke-linejoin="round"/>
	<path id="Vector" d="M66.25 31.93C65.73 31.93 65.73 31.93 65.21 31.93C64.69 31.4 64.16 31.4 64.16 31.93C63.64 31.93 63.12 32.45 63.12 32.97C63.12 32.97 63.12 33.49 62.6 35.06C62.08 36.62 61.55 39.23 61.03 41.84" stroke="#EF7F1A" stroke-opacity="1.000000" stroke-width="2.088235" stroke-linejoin="round" stroke-linecap="round"/>
	<path id="Vector" d="M62.6 34.01C62.6 34.01 62.08 34.01 61.55 34.01C61.55 34.01 61.03 34.01 60.51 34.01C60.51 34.54 59.99 34.54 59.99 35.06C59.47 36.1 59.47 36.62 58.94 38.19C58.42 39.76 58.42 41.32 57.9 43.41" stroke="#EF7F1A" stroke-opacity="1.000000" stroke-width="2.088235" stroke-linejoin="round" stroke-linecap="round"/>
	<path id="Vector" d="M58.42 68.99L58.42 78.91L42.24 78.91L42.24 68.99L58.42 68.99Z" stroke="#EF7F1A" stroke-opacity="1.000000" stroke-width="2.088235" stroke-linejoin="round"/>
</svg>
